<svg xmlns="http://www.w3.org/2000/svg" width="32" height="38" viewBox="0 0 32 38"><defs><style>.a,.b{fill:#ff7c81;}.a{opacity:0.15;}</style></defs><g transform="translate(-315 -402)"><rect class="a" width="32" height="38" rx="7" transform="translate(315 402)"/><g transform="translate(321 411)"><path class="b" d="M164.291,402.912v-4.4a16.016,16.016,0,0,0-3.233.455,12.271,12.271,0,0,0,.549,1.157A5.783,5.783,0,0,0,164.291,402.912Zm0,0" transform="translate(-154.808 -383.094)"/><path class="b" d="M273.684,400.124a12.249,12.249,0,0,0,.549-1.157,16.016,16.016,0,0,0-3.233-.455v4.4a5.783,5.783,0,0,0,2.684-2.789Zm0,0" transform="translate(-260.483 -383.095)"/><path class="b" d="M136.032,272.712v-4.036h-4.423a17.235,17.235,0,0,0,.774,4.561,17.212,17.212,0,0,1,3.649-.524Zm0,0" transform="translate(-126.517 -258.286)"/><path class="b" d="M136.033,130.459v-4.036a17.225,17.225,0,0,1-3.649-.524,17.234,17.234,0,0,0-.774,4.561Zm0,0" transform="translate(-126.517 -121.031)"/><path class="b" d="M334.164,12.045a12.97,12.97,0,0,0,2.08-.9,10.375,10.375,0,0,0-4.01-2.345,9.976,9.976,0,0,1,1.274,1.855,13.79,13.79,0,0,1,.656,1.393Zm0,0" transform="translate(-319.366 -8.441)"/><path class="b" d="M161.607,2.789a12.27,12.27,0,0,0-.549,1.157,16.016,16.016,0,0,0,3.233.455V0a5.783,5.783,0,0,0-2.684,2.789Zm0,0" transform="translate(-154.808)"/><path class="b" d="M271,268.676v4.036a17.224,17.224,0,0,1,3.649.524,17.242,17.242,0,0,0,.774-4.561Zm0,0" transform="translate(-260.515 -258.287)"/><path class="b" d="M271,126.423v4.036h4.423a17.234,17.234,0,0,0-.774-4.56,17.223,17.223,0,0,1-3.649.524Zm0,0" transform="translate(-260.515 -121.03)"/><path class="b" d="M4.929,273.583a18.217,18.217,0,0,1-.821-4.908H0a10.323,10.323,0,0,0,2.4,6.043,13.986,13.986,0,0,1,2.528-1.135Zm0,0" transform="translate(0 -258.335)"/><path class="b" d="M334.164,418.227a13.876,13.876,0,0,1-.656,1.393,9.974,9.974,0,0,1-1.274,1.855,10.376,10.376,0,0,0,4.01-2.345A12.982,12.982,0,0,0,334.164,418.227Zm0,0" transform="translate(-319.366 -402.013)"/><path class="b" d="M82.678,418.227a12.973,12.973,0,0,0-2.08.9,10.375,10.375,0,0,0,4.01,2.345,9.995,9.995,0,0,1-1.274-1.855A13.8,13.8,0,0,1,82.678,418.227Zm0,0" transform="translate(-77.476 -402.013)"/><path class="b" d="M390.121,90.384a18.217,18.217,0,0,1,.821,4.908h4.107a10.322,10.322,0,0,0-2.4-6.042,13.984,13.984,0,0,1-2.528,1.135Zm0,0" transform="translate(-375.049 -85.814)"/><path class="b" d="M390.121,273.583a13.981,13.981,0,0,1,2.528,1.135,10.322,10.322,0,0,0,2.4-6.042h-4.107A18.216,18.216,0,0,1,390.121,273.583Zm0,0" transform="translate(-375.049 -258.335)"/><path class="b" d="M271,0V4.4a16.027,16.027,0,0,0,3.233-.455,12.213,12.213,0,0,0-.549-1.157A5.783,5.783,0,0,0,271,0Zm0,0" transform="translate(-260.483 0)"/><path class="b" d="M4.928,90.385A13.984,13.984,0,0,1,2.4,89.25,10.321,10.321,0,0,0,0,95.292H4.108a18.217,18.217,0,0,1,.821-4.908Zm0,0" transform="translate(0 -85.815)"/><path class="b" d="M82.674,12.045a13.85,13.85,0,0,1,.656-1.393A9.97,9.97,0,0,1,84.6,8.8a10.376,10.376,0,0,0-4.01,2.345,12.979,12.979,0,0,0,2.081.9Zm0,0" transform="translate(-77.472 -8.441)"/></g></g></svg>