<svg xmlns="http://www.w3.org/2000/svg" width="32" height="38" viewBox="0 0 32 38"><defs><style>.a,.b{fill:#ff7c81;}.a{opacity:0.15;}</style></defs><g transform="translate(-313 -480)"><rect class="a" width="32" height="38" rx="7" transform="translate(313 480)"/><g transform="translate(319 444.049)"><g transform="translate(0 46.951)"><path class="b" d="M13.333,46.951H6.667a6.667,6.667,0,0,0,0,13.333H11.53l2.9,2.9A.333.333,0,0,0,15,62.951v-2.88a6.666,6.666,0,0,0-1.667-13.12ZM4,50.284H16a.333.333,0,1,1,0,.667H4a.333.333,0,1,1,0-.667ZM2.333,51.951h6a.333.333,0,1,1,0,.667h-6a.333.333,0,1,1,0-.667Zm15.333,4H10.333a.333.333,0,1,1,0-.667h7.333a.333.333,0,0,1,0,.667Zm0-1.667H2a.333.333,0,0,1,0-.667H17.667a.333.333,0,1,1,0,.667Zm0-1.667H10.333a.333.333,0,1,1,0-.667h7.333a.333.333,0,0,1,0,.667Z" transform="translate(0 -46.951)"/></g></g></g></svg>