<svg xmlns="http://www.w3.org/2000/svg" width="32" height="38" viewBox="0 0 32 38"><defs><style>.a,.b{fill:#ff7c81;}.a{opacity:0.15;}</style></defs><g transform="translate(-315 -648)"><rect class="a" width="32" height="38" rx="7" transform="translate(315 648)"/><g transform="translate(321 660)"><g transform="translate(0 0)"><path class="b" d="M2.723,133.742l-1.564-1.559a.811.811,0,0,1,1.149-1.145l2.945,2.937a.806.806,0,0,1,.18.886.764.764,0,0,1-.176.262l-2.949,2.941a.811.811,0,1,1-1.148-1.145l1.564-1.559H0v-1.619H2.723Z" transform="translate(14.505 -127.296)"/><path class="b" d="M117.661,57.469h9.107a2.7,2.7,0,0,1,2.7,2.7v3.743h-7.989a.811.811,0,1,0,0,1.621h7.989v3.747a2.7,2.7,0,0,1-2.7,2.7h-9.107a2.7,2.7,0,0,1-2.7-2.7V60.17A2.7,2.7,0,0,1,117.661,57.469Z" transform="translate(-114.962 -57.469)"/></g></g></g></svg>