<svg xmlns="http://www.w3.org/2000/svg" width="32" height="38" viewBox="0 0 32 38"><defs><style>.a,.b{fill:#ff7c81;}.a{opacity:0.15;}</style></defs><g transform="translate(-315 -316)"><rect class="a" width="32" height="38" rx="7" transform="translate(315 316)"/><g transform="translate(295.427 325)"><g transform="translate(27.573 0)"><path class="b" d="M134.053,70.006c-.407.383-1.19.328-1.772.31l.136,1.328a4.382,4.382,0,0,0,3.12.107l.15-1.464C135.25,69.921,134.416,70.5,134.053,70.006Z" transform="translate(-125.712 -65.614)"/><path class="b" d="M120.027,1.536c-.171-.273,0-.7,0-1.075s-.29-.2-.324-.341S119.259,0,119.259,0a9.535,9.535,0,0,1-1.433,1.74,1.014,1.014,0,0,0-.358.717,1.647,1.647,0,0,0-.218.842,1.648,1.648,0,0,0-.218-.842,1.015,1.015,0,0,0-.358-.717A9.493,9.493,0,0,1,115.24,0s-.409-.017-.444.119-.324-.034-.324.341.171.8,0,1.075.2.631.171,1.007a3.467,3.467,0,0,0,.815,1.957c.572.019,1.481.116,1.792-.328a.1.1,0,0,1,.187.024c.16.395.919.152,1.237.167a.659.659,0,0,1,.373.133,3.5,3.5,0,0,0,.809-1.953C119.822,2.168,120.2,1.809,120.027,1.536Z" transform="translate(-108.979 0)"/><path class="b" d="M43.462,108.828c.017-.085.426-.051.426-.29s.256-.392.222-.512a8.976,8.976,0,0,0-1.023-1.671,13.434,13.434,0,0,1-1.671-2.387A25.95,25.95,0,0,0,39.3,101a6.643,6.643,0,0,0-1.733-1.651.1.1,0,0,1-.039.02,4.7,4.7,0,0,1-3.3-.086A6.475,6.475,0,0,0,32.385,101a26.035,26.035,0,0,0-2.115,2.966,13.447,13.447,0,0,1-1.671,2.387,8.973,8.973,0,0,0-1.023,1.671c-.034.119.222.273.222.512s.409.2.426.29-.051.409.29.443l-.238.528s-.034.256.136.222-.29.409.375.324.358.375.7.426l-.273.46s.2.273.426.188c0,0-.171.358-.068.512s.239-.1.358-.222,0,.29.409.17l.136-.2s.273.453.58.3l-.017.276a2.482,2.482,0,0,0,.358,0l-.034.307.324-.085s-.068.29.171.307c0,0-.136.171-.068.171s.682.171,1.023-.085l-.034-.187.239.017.051.17s.119-.051.341-.153.1.295.1.295a.412.412,0,0,1,.409,0c.171.132.461-.1.716,0,0,0,.358-.022.392-.107v-.221s.188.2.358.068v-.171s.123.014.262.028a.063.063,0,0,0,0,.023,1.02,1.02,0,0,0,.191-.005,1.049,1.049,0,0,0,.191.005.063.063,0,0,0,0-.023l.262-.028v.171c.171.136.358-.068.358-.068v.221c.034.085.392.107.392.107.256-.1.546.132.716,0a.411.411,0,0,1,.409,0s-.119-.4.1-.295.341.153.341.153l.051-.17.239-.017-.034.187c.341.256.955.085,1.023.085s-.068-.171-.068-.171c.239-.017.171-.307.171-.307l.324.085-.034-.307a2.482,2.482,0,0,0,.358,0l-.017-.276c.307.15.58-.3.58-.3l.136.2c.409.12.29-.29.409-.17s.256.375.358.222-.068-.512-.068-.512c.222.085.426-.188.426-.188l-.273-.46c.341-.051.034-.512.7-.426s.2-.358.375-.324.136-.222.136-.222l-.239-.529C43.513,109.237,43.444,108.913,43.462,108.828Z" transform="translate(-27.573 -93.053)"/></g></g></g></svg>