<svg xmlns="http://www.w3.org/2000/svg" width="32" height="38" viewBox="0 0 32 38"><defs><style>.a,.b{fill:#ff7c81;}.a{opacity:0.15;}</style></defs><g transform="translate(-315 -562)"><rect class="a" width="32" height="38" rx="7" transform="translate(315 562)"/><g transform="translate(322 571.001)"><path class="b" d="M124.271,158.457a3.83,3.83,0,1,0,3.83,3.83A3.834,3.834,0,0,0,124.271,158.457Zm2.274,3.108-2.744,2.744a.59.59,0,0,1-.834,0l-1.048-1.048a.59.59,0,0,1,.834-.834l.631.632,2.327-2.327a.59.59,0,1,1,.834.834Zm0,0" transform="translate(-115.755 -152.287)"/><path class="b" d="M17.011,5.426V5.41c-.009-.192-.014-.4-.018-.622a2.12,2.12,0,0,0-2-2.077A8.225,8.225,0,0,1,9.4.352L9.386.34a1.28,1.28,0,0,0-1.74,0L7.633.352a8.226,8.226,0,0,1-5.6,2.36,2.12,2.12,0,0,0-2,2.077c0,.225-.009.428-.018.621v.036A21.675,21.675,0,0,0,.9,13.358a10.072,10.072,0,0,0,2.416,3.764,12.64,12.64,0,0,0,4.728,2.8,1.464,1.464,0,0,0,.194.053,1.431,1.431,0,0,0,.563,0,1.468,1.468,0,0,0,.195-.053,12.648,12.648,0,0,0,4.723-2.8,10.086,10.086,0,0,0,2.416-3.764A21.708,21.708,0,0,0,17.011,5.426Zm-8.5,9.558A4.984,4.984,0,1,1,13.5,10,4.99,4.99,0,0,1,8.516,14.984Zm0,0" transform="translate(0 0)"/></g></g></svg>