<svg xmlns="http://www.w3.org/2000/svg" xmlns:xlink="http://www.w3.org/1999/xlink" width="286.889" height="440.308" viewBox="0 0 286.889 440.308"><defs><style>.a{opacity:0.69;}.b{fill:url(#a);}.c{fill:#ffcab8;}.d{fill:#e7ac9a;}.e{fill:#fff;}.f{fill:#edf2fe;}.g{fill:url(#b);}.h{fill:#a2a5a9;}.i{fill:url(#c);}.j,.k,.o,.p{mix-blend-mode:screen;isolation:isolate;}.j{fill:url(#d);}.k,.p{opacity:0.55;}.l{fill:url(#e);}.m{fill:url(#f);}.n{fill:url(#g);}.o{fill:url(#h);}.p{fill:url(#i);}.q{fill:url(#j);}.r{fill:#fefefe;}.s{fill:#9a9a9a;}.t{fill:#4d4d4d;}.u{fill:url(#l);}.v{fill:url(#m);}.w{fill:url(#n);}.x{fill:#232222;}.y{fill:url(#o);}.z{fill:url(#p);}.aa{fill:url(#q);}</style><linearGradient id="a" x1="0.5" y1="0.38" x2="0.5" y2="0.961" gradientUnits="objectBoundingBox"><stop offset="0" stop-color="#ff7c81"/><stop offset="0.275" stop-color="#ff7c81"/><stop offset="0.681" stop-color="#ff7c81" stop-opacity="0.702"/><stop offset="1" stop-color="#ff7c81" stop-opacity="0.741"/></linearGradient><linearGradient id="b" x1="0" y1="0.5" x2="1" y2="0.5" xlink:href="#a"/><linearGradient id="c" x1="0.5" y1="0.256" x2="0.5" y2="0.671" gradientUnits="objectBoundingBox"><stop offset="0" stop-color="#ff7c81"/><stop offset="0.275" stop-color="#ff7c81"/><stop offset="0.681" stop-color="#ff7c81" stop-opacity="0.702"/><stop offset="1" stop-color="#ff7c81" stop-opacity="0.8"/></linearGradient><linearGradient id="d" x1="0.5" y1="0.113" x2="0.5" y2="0.608" gradientUnits="objectBoundingBox"><stop offset="0" stop-color="#08339f"/><stop offset="0.275" stop-color="#0d3aa3"/><stop offset="0.681" stop-color="#1d4eb0"/><stop offset="0.993" stop-color="#2e62be"/></linearGradient><linearGradient id="e" x1="0.5" y1="0.226" x2="0.5" y2="0.591" xlink:href="#d"/><linearGradient id="f" x1="0.499" y1="0.226" x2="0.499" y2="0.591" xlink:href="#d"/><linearGradient id="g" x1="0.5" y1="0.153" x2="0.5" y2="0.889" xlink:href="#a"/><linearGradient id="h" x1="0.5" y1="0.001" x2="0.5" y2="0.869" xlink:href="#d"/><linearGradient id="i" x1="0.5" y1="0.133" x2="0.5" y2="0.774" xlink:href="#d"/><linearGradient id="j" x1="1.14" y1="0.5" x2="0.147" y2="0.5" gradientUnits="objectBoundingBox"><stop offset="0"/><stop offset="0.132"/><stop offset="0.327"/><stop offset="0.561" stop-color="#0f0f0f"/><stop offset="0.824" stop-color="#040404"/><stop offset="1" stop-color="#242424"/></linearGradient><linearGradient id="l" x1="0.265" y1="0.279" x2="1.048" y2="0.699" xlink:href="#a"/><linearGradient id="m" x1="0.912" y1="0.5" x2="0.065" y2="0.5" xlink:href="#a"/><linearGradient id="n" x1="0.864" y1="0.5" x2="0.158" y2="0.5" xlink:href="#a"/><linearGradient id="o" x1="0.679" y1="0.5" x2="0.163" y2="0.5" gradientUnits="objectBoundingBox"><stop offset="0" stop-color="#ff7c81"/><stop offset="0.275" stop-color="#ff7c81"/><stop offset="0.681" stop-color="#ff7c81" stop-opacity="0.902"/><stop offset="1" stop-color="#ff7c81" stop-opacity="0.949"/></linearGradient><linearGradient id="p" x1="0.756" y1="0.928" x2="0.168" y2="0.162" xlink:href="#a"/><linearGradient id="q" x1="1.042" y1="0.5" x2="-0.051" y2="0.5" xlink:href="#a"/></defs><g class="a" transform="translate(-2238.146 -10978.455)"><g transform="translate(2238.146 11050.106)"><g transform="translate(113.241 67.069)"><path class="b" d="M700.833,357.179a1.56,1.56,0,0,0,1.56,1.56h1.286a1.56,1.56,0,0,0,1.56-1.56V335.3h-4.406Z" transform="translate(-700.833 -335.301)"/></g><g transform="translate(44.811 53.946)"><path class="c" d="M713.9,324.488c-5.39,2.028-6.63.414-8.105.746s-3.293-.75-5.558.7-11.464,7.73-11.464,7.73.889,6.174,5.284,6.812c0,0,3.469-2.515,5.868-.712s8.545-2.414,11.763-4.834,3.81-3.776,1.062-3.71-5.5,3.56-7.353,2.719c0,0,8.5-5.982,10.768-6.628s5.46-1.274,5.7-2.474S719.288,322.461,713.9,324.488Z" transform="translate(-633.63 -323.389)"/><path class="d" d="M721.5,323.953c-4.134,2-8.722,2.159-12.766,4.631-3.329,2.035-5.681,5.756-9.379,7.093-2.4.867-6.849,1.163-8.428-1.427a3.5,3.5,0,0,1-.526-1.753c-.981.667-1.63,1.111-1.63,1.111s.889,6.174,5.284,6.812c0,0,3.469-2.515,5.868-.712s8.545-2.414,11.764-4.834,3.809-3.776,1.061-3.71-5.5,3.56-7.353,2.719c0,0,8.5-5.982,10.768-6.628s5.46-1.274,5.7-2.474A.844.844,0,0,0,721.5,323.953Z" transform="translate(-633.63 -323.332)"/><path class="e" d="M695.012,329.155c-15.5,7.486-43.365,5.725-54.5,25.536-3,5.343-4.593,17.952,15.224,13.088,7.866-1.931,33.319-21.244,44.486-27.453A10.941,10.941,0,0,0,695.012,329.155Z" transform="translate(-638.721 -322.803)"/><path class="f" d="M699.158,333.287c-3.24,3.765-8.132,4.459-12.789,5.1a65.87,65.87,0,0,0-17.849,5.233c-3.985,1.8-7.55-2.37-6.545-5.417-8.712,2.991-16.65,7.52-21.46,16.081-3,5.343-4.593,17.952,15.224,13.088,7.866-1.931,33.319-21.244,44.486-27.453a11.523,11.523,0,0,0-1.006-6.714C699.2,333.229,699.183,333.258,699.158,333.287Z" transform="translate(-638.721 -322.391)"/></g><g transform="translate(110.481 61.925)"><path class="g" d="M723.2,429.024c-.2,12.8-.754,20.035-9.714,20.035-3.261,0-5.667-.989-7.353-3.024-6.636-8.008-2.266-31.14,1.96-53.512,4.508-23.861,9.17-48.534,2.6-61.891l-3.954,1.945c5.921,12.04,1.4,35.978-2.976,59.128-4.62,24.448-8.982,47.54-1.022,57.143,2.539,3.064,6.154,4.618,10.745,4.618,13.734,0,13.939-12.949,14.12-24.371.123-7.746.25-15.756,3.64-21.274l-3.754-2.307C723.465,412.061,723.327,420.685,723.2,429.024Z" transform="translate(-698.328 -330.632)"/></g><path class="h" d="M609.806,596.493a37.29,37.29,0,0,0,4.56,10.971c1.205,1.781,11.514.468,11.514.468C621.191,597.613,609.806,596.493,609.806,596.493Z" transform="translate(-596.851 -241.663)"/><path class="d" d="M655.67,298.77c1.126-5.632-.466-9.606-2.515-11.831-5.245-5.7-21.231-10.956-31.417-.26s1.043,26.332,2.738,32.2A17.517,17.517,0,0,1,622.3,332.87s20.033,4.519,19.25,2.3-.13-6.128,2.477-7.822,5.032-.782,6.519-.782c2.737,0,4.312-6.738,5.752-16.124S654.546,304.4,655.67,298.77Z" transform="translate(-596.067 -273.806)"/><path class="c" d="M654.4,298.77c1.126-5.632-.466-9.606-2.515-11.831-3.783-4.109-13.157-7.987-21.91-5.817,8.263-.036,16.085,4.346,19.1,8.271,1.759,2.287,2.853,6.1,1.052,11.047s1.774,2.348-.8,10.653-4.951,14.2-7.664,13.831c-1.474-.2-3.762,3.043-6.553,4.229s-3.076,4.521-2.571,6.632c.253,1.053,8.519,1.6,7.736-.611s-.13-6.128,2.478-7.822,5.03-.782,6.518-.782c2.737,0,4.311-6.738,5.752-16.124S653.278,304.4,654.4,298.77Z" transform="translate(-594.8 -273.806)"/><path class="c" d="M618.622,398.086a216.057,216.057,0,0,0-14.51,29.8c-5.916,15.468,3.925,34.173,5.137,39.043s-6,57.423-7.9,73.067,9.672,56.055,10.852,62.049a11.907,11.907,0,0,1-.354,5.894c-.858,2.92-2.391,5.476-2.391,8.716a3.515,3.515,0,0,0,.111.935,2.7,2.7,0,0,0,.32.837c1.675,2.93,7.8,1.433,8.693,1.873,1.047.518,2.578,7.867,7.47,7.867a3.684,3.684,0,0,0,.715-.056,1.505,1.505,0,0,0,.332-.044c.1-.022.2-.044.3-.076a3.806,3.806,0,0,0,.815-.288,2.337,2.337,0,0,0,.4-.231,1.531,1.531,0,0,0,.22-.143,2.921,2.921,0,0,0,.286-.22.161.161,0,0,0,.044-.043,4.314,4.314,0,0,0,.375-.376,4.078,4.078,0,0,0,.583-.814.034.034,0,0,1,.012-.023,3.955,3.955,0,0,0,.209-.429,4.325,4.325,0,0,0,.187-.475c.044-.131.077-.263.11-.386a3.1,3.1,0,0,0,.077-.408c.022-.132.033-.264.044-.384.055-.816-.177-1.345-.573-1.081a1.315,1.315,0,0,1-1.465-.187,3.347,3.347,0,0,1-.815-.671c-5.029-6.906-4.2-18.532-3.911-23.17,1.531-25.1,2.809-75.093,5.938-79.522s4.164-23.984,4.164-23.984c9.915-23.2,4.693-91.773,4.693-91.773Z" transform="translate(-597.733 -261.845)"/><path class="i" d="M604.227,427.892c-5.91,15.469,1.167,34.449,2.384,39.315S600,525.522,600,541.578c0,13.134,7.646,41.678,10.964,54.867a35.812,35.812,0,0,0,3.707,1.191c3.236.714,6.347-.4,9.55-.965,1.485-25.656,2.664-57.787,4.438-66.189,1.119-5.308,26.161-115.747,26.161-115.747l-36.076-16.651A216.526,216.526,0,0,0,604.227,427.892Z" transform="translate(-597.849 -261.845)"/><path class="j" d="M615.3,465.515c-10.25-10.189-11.224-30.155-11.878-38.184-4.385,14.971,2.034,32.285,3.188,36.9,1.216,4.867-6.628,57.353-6.628,73.409,0,13.132,7.659,42.64,10.978,55.829.381.128.76.263,1.139.4-2.582-13.781-6.827-43.149-6.1-55.971C606.92,521.868,615.567,465.78,615.3,465.515Z" transform="translate(-597.85 -258.87)"/><g class="k" transform="translate(26.125 174.068)"><path class="l" d="M699.619,492.241s-.376,18.258-3.131,22.931c-8.828,14.975-2.75,64.572-1.8,82.357.012-.966.046-2.079.12-3.3,1.537-25.1,2.81-75.088,5.939-79.52s4.171-23.987,4.171-23.987c5.262-12.325,6.259-37.449,6.035-58.3C710.144,453.465,705.614,479.99,699.619,492.241Z" transform="translate(-614.64 -432.421)"/><path class="m" d="M621.886,586.787c0-.984-.044-2.214-.12-3.643A17.384,17.384,0,0,0,621.886,586.787Z" transform="translate(-621.761 -417.09)"/></g><path class="c" d="M688.684,610.862c-7.657-18.773-4.089-50.416-5.487-69.883s-7.987-27.818-7.987-52.849-11.667-81.946-11.667-81.946l-26.75-4.527s.062-4.156-10.372,17.57,2.373,32.756,6.9,46.66S657.647,530.9,657.647,530.9s-.693,9.375,2.26,27.277c2.9,17.474,15.457,36.379,10.466,49.281a9.97,9.97,0,0,1-.386.935c-5.993,12.9,1.289,13.3,4.825,13.3,11.811,0,11.932,8.053,20.734,8.45s11.667-3.2,11.667-3.2a6.9,6.9,0,0,0-.518-.595C701.684,621,696.076,629.017,688.684,610.862Z" transform="translate(-595.567 -261.514)"/><path class="d" d="M700.91,607.475c-.015.009-.025.02-.042.028-3.465,1.731-6.228,1.407-9.8-.014s-7.064-2.275-9.6-5.317c-2.413-2.894-4.953-5.208-7.563-7.85-2.7-2.731-3.019-6.613-2.636-10.264.242-2.325.968-6.8,2.7-9.815H666.1c1.423,5.74,1.861,11.06.095,15.627a9.955,9.955,0,0,1-.386.935c-5.993,12.9,1.289,13.3,4.826,13.3,11.81,0,11.932,8.053,20.734,8.45s11.667-3.2,11.667-3.2a7.967,7.967,0,0,0-2.125-1.883Z" transform="translate(-591.387 -243.927)"/><path class="n" d="M683.254,540.987c-1.388-19.467-7.987-27.818-7.987-52.85S663.6,406.191,663.6,406.191l-26.75-4.527s-.5-3.3-7,8.912c-1.168,2.192-2.534,4.9-4.131,8.22-10.422,21.725,3.129,33.195,7.657,47.1S657.7,530.907,657.7,530.907s-.693,9.375,2.26,27.277c2.214,13.4,10.114,27.631,11.436,39.353,4.473,3.382,9.574,2.7,12.306,2.216a7.819,7.819,0,0,1,1.873-.264C682.217,580.98,684.4,556.907,683.254,540.987Z" transform="translate(-595.624 -261.522)"/><path class="o" d="M664.061,529.4s-17.251-52.028-21.073-66.138a66.432,66.432,0,0,0-3.854-9.935,38.689,38.689,0,0,1-8.122-5.816,31.491,31.491,0,0,1-8.969-19.026c-1.421,14.192,7.757,23.663,11.333,34.641,4.517,13.9,24.325,65.013,24.325,65.013s-.693,9.375,2.26,27.277c2.214,13.4,10.114,27.631,11.436,39.353a12.484,12.484,0,0,0,3.021,1.682c-.8-11.743-7.914-26.272-9.454-39.695C662.9,538.729,664.061,529.4,664.061,529.4Z" transform="translate(-595.622 -258.753)"/><path class="p" d="M755.174,540.129c-1.388-19.467-7.987-27.818-7.987-52.849s-11.667-81.946-11.667-81.946l-26.75-4.528s-.5-3.294-7,8.913c.892-.606,1,.176,1,.176s18.849,4.793,23.642,9.585C741.05,434.11,740.125,472,739.706,497.019s10.17,32.973,11.226,52.464c.826,15.314.132,34.473,4.693,49.411a7.852,7.852,0,0,1,1.873-.263C754.139,580.12,756.32,556.049,755.174,540.129Z" transform="translate(-587.496 -261.61)"/><path class="e" d="M664.216,376.657a35.486,35.486,0,0,0,2.666-4.473c4.615-9.453.43-14.774-1.575-19.071-4.859-10.422-2.214-13.077-13.4-19.732s-30.9-6.026-39.926-1.388c-5.576,2.853-8.77,9.607-11.227,22.508s9.673,24.073,13.131,38.319-1.09,22.254-1.09,22.254c27.345,11.987,54.337,4.342,54.337,4.342,0-10.83-6.8-22.994-6.026-33.637A17.8,17.8,0,0,1,664.216,376.657Z" transform="translate(-597.805 -268.929)"/><path class="f" d="M660.51,375.642a35.491,35.491,0,0,0,2.666-4.473c4.615-9.453.43-14.774-1.575-19.071-3.148-6.751-3.15-10.243-5.8-13.675a23.3,23.3,0,0,1-4.259,3.508c-3.919,2.533-8.352,5.565-12.733,7.353a15.235,15.235,0,0,1,1.233,2.955,24.335,24.335,0,0,1-.389,12.879c-.908,3.226-3.087,6.9-2.754,10.313.514,5.257,6.685,10.236,8.8,15.023a32.039,32.039,0,0,1,1.884,18,24.282,24.282,0,0,1-5.789,12.344A84.691,84.691,0,0,0,663.43,418.4c0-10.83-6.8-22.994-6.026-33.637A17.8,17.8,0,0,1,660.51,375.642Z" transform="translate(-594.099 -267.914)"/><path class="q" d="M656.987,287.392c-3.393-2.866-5.334-.479-6.171-2.434-6.361-14.876-28.174-11.922-34.793-3.856-9.627,11.732-5.179,12.055-13.267,27.93s-4,18.424-.7,33.024-2.731,13.992-.646,26.854,14.377,19.9,14.377,19.9c.7-7.474-11.487-16.811,0-24.161,15.048-9.629,18.81-15.067,18.076-27.463-.4-6.765,7.493-8.441,9.648-14.774,1.794-5.271-4.16-15.029,2.709-17.318C661.347,300.057,660.31,290.2,656.987,287.392Z" transform="translate(-598.047 -274.424)"/><path class="r" d="M648.026,281.5a2.21,2.21,0,0,0-2.365,2.047,2.35,2.35,0,0,0,0,.353,7.763,7.763,0,0,1,0,1.044c-.011.385-.063.778-.1,1.172a19.234,19.234,0,0,1-.458,2.36c-.415,1.559-2.792,6.1-4.052,7.158-4.99,4.2-4.51,4.8-4.51,4.8s.79-1.305,5-2.351c2.8-.694,3.06-1.97,4.213-3.463a22.384,22.384,0,0,0,2.821-4.956,23.112,23.112,0,0,0,.942-2.742c.116-.477.243-.949.329-1.442a11.963,11.963,0,0,0,.217-1.593l0-.019A2.212,2.212,0,0,0,648.026,281.5Z" transform="translate(-594.133 -273.705)"/><path class="e" d="M652.548,337.49c-10.644-8.017-16.311,7.81-14.346,18.17,2.443,12.88,15.837,52.175,28.3,54.383,16.976,3.007,15.99-8.087,10-22.777S663.6,345.817,652.548,337.49Z" transform="translate(-594.002 -268.232)"/><path class="f" d="M651.632,337.485a9.948,9.948,0,0,0-4.807-2.138,37.664,37.664,0,0,1,8.682,19.712c.813,6.629,2.347,14.8,6.719,20.188,4.09,5.037,5.957,10.58,9.457,16.323,3.009,4.938,7.91,10.848,6.048,16.454-.012.036-.03.067-.042.1,3.456-3.767,1.674-11.6-2.105-20.866C669.591,372.571,662.688,345.812,651.632,337.485Z" transform="translate(-593.086 -268.227)"/><g transform="translate(45.5 30.245)"><path class="c" d="M643.225,301.89c-1.018-.116-3.118.475-3.763,3.517a5.3,5.3,0,0,0,.769,3.935,3.184,3.184,0,0,1,.523,2.628,1.1,1.1,0,1,0,2.136.541,5.3,5.3,0,0,0-.717-4.21,3.186,3.186,0,0,1-.555-2.437c.367-1.73,1.212-1.781,1.4-1.781a1.138,1.138,0,0,0,1.164-1.017A1.083,1.083,0,0,0,643.225,301.89Z" transform="translate(-639.346 -301.877)"/></g><path class="c" d="M742.149,399.265c-2.342.261-12.477-2.059-12.477-2.059,1.4-1.48,5.268.713,7.836-.267s1.508-2.01-2.387-3.032-11.182-2.6-12.719-.022-5.7,1.561-5.7,1.561c-3.825,2.254-2.311,8.3-2.311,8.3s10.889,2.331,13.536,2.817,3.919-1.205,5.411-1.455,2.028-2.214,7.785-2.378,7.926-2.319,7.245-3.338S744.492,399,742.149,399.265Z" transform="translate(-586.243 -262.415)"/><path class="d" d="M742.149,399.265c-2.342.261-12.477-2.059-12.477-2.059,1.4-1.48,5.268.713,7.836-.267s1.508-2.01-2.387-3.032-11.182-2.6-12.719-.022-5.7,1.561-5.7,1.561c-3.825,2.254-2.311,8.3-2.311,8.3l1.928.411a3.5,3.5,0,0,1-.177-1.82c.483-3,4.713-4.406,7.263-4.512,3.929-.163,7.514,2.393,11.365,3.017,4.677.758,8.988-.83,13.568-.545a.842.842,0,0,0,.03-.9C747.684,398.377,744.492,399,742.149,399.265Z" transform="translate(-586.243 -262.415)"/><path class="e" d="M671.7,386.664c-20.182,3-13.989,14.133-9.138,17.876,18.993,14.656,60.11,3.011,60.11,3.011a10.941,10.941,0,0,0,.6-12.313C710.585,393.719,679.716,385.474,671.7,386.664Z" transform="translate(-591.978 -263.019)"/><path class="f" d="M670.516,386.664c-.391.059-.756.126-1.128.189a23.332,23.332,0,0,1,7.676,3.6c3.692,2.389,7.225,4.877,11.595,5.743,5.407,1.073,10.957,1.163,16.378,2.133,4.8.857,9.336,2.74,14.236,2.937a7.445,7.445,0,0,1,4.29,1.618,11.416,11.416,0,0,0-1.479-7.648C709.4,393.719,678.529,385.474,670.516,386.664Z" transform="translate(-590.791 -263.019)"/><path class="s" d="M664,598.734l4.179,11.357H670.5L668.3,598.734Z" transform="translate(-591.339 -241.435)"/><path class="s" d="M609.806,598.734l4.179,11.357h2.329l-2.207-11.357Z" transform="translate(-596.851 -241.435)"/><path class="h" d="M695.977,608.974c-.4.061.037-3.518-.65-4.351a17.634,17.634,0,0,0-3.372-1.444s-.062,6.057-.336,6.041a7.506,7.506,0,0,1-4.723-1.712c-4.407-4.131-11.932-6.522-11.932-6.522-1.807-5.409-5.762-9.816-8.77-12.559a9.949,9.949,0,0,1-.386.935c-5.993,12.9,1.289,13.3,4.826,13.3,11.81,0,11.932,8.052,20.734,8.45s11.667-3.2,11.667-3.2v-.782s-.187.066-.518.187A38.856,38.856,0,0,1,695.977,608.974Z" transform="translate(-591.387 -242.484)"/><path class="h" d="M628.617,606.482c.011-.121.033-.231.033-.353a5.469,5.469,0,0,0-.187-1.6,8.5,8.5,0,0,0-.518-1.388,4.218,4.218,0,0,1-.805-.66,6.317,6.317,0,0,1-.133,4.767c-4.143,1.708-5.661-7.214-6.841-10.211-1.333-3.4-2.955-6.928-6.659-8.307a3.834,3.834,0,0,0-2.43-.154c-.858,2.92-2.391,5.476-2.391,8.716a3.513,3.513,0,0,0,.111.935l.319.837c1.675,2.931,7.8,1.433,8.693,1.873,1.047.518,2.578,7.867,7.47,7.867a4.607,4.607,0,0,0,4.66-4.011c.022-.132.033-.264.044-.385a4.3,4.3,0,0,1-1.036,1.7Z" transform="translate(-596.965 -242.483)"/><g transform="translate(147.062 135.573)"><path class="g" d="M743.729,429.229c.4-9.949.736-18.541.231-22.213-1.219-8.885-7.044-9.4-10.214-9.455l-2.216-.081a13,13,0,0,1,8.065,10.136c.452,3.286.1,12.1-.27,21.439-.786,19.839-1.176,34.7.986,40.728a1.37,1.37,0,0,0,2.015.675l1.416-.883a1.356,1.356,0,0,0,.583-1.581C742.417,462.323,743.2,442.58,743.729,429.229Z" transform="translate(-731.531 -397.48)"/></g></g><g transform="translate(2400.515 10978.455)"><g transform="translate(0 162.601)"><g transform="translate(0 209.973)"><path class="t" d="M839.867,542.624c-6.65,1.282-20.073,6.723-26.83,29.507-3.85,10.454-9.944,9.73-17.674,15.516a16.928,16.928,0,0,0-6.92,12.054,3.3,3.3,0,0,0,3.28,3.647h6.043a3.275,3.275,0,0,0,3.22-2.635c.467-2.317,1.646-5.556,4.627-7.127,5.091-2.684,12.662-5.576,15.541-15.033,5.109-19.508,15.2-23.575,19.987-24.381a3.242,3.242,0,0,0,2.647-3.227v-5.081A3.293,3.293,0,0,0,839.867,542.624Z" transform="translate(-788.425 -542.563)"/></g><g transform="translate(57.132)"><path class="t" d="M843.848,351.976a3.565,3.565,0,0,0-3.566,3.565V588.776a3.565,3.565,0,0,0,7.13,0V355.541A3.564,3.564,0,0,0,843.848,351.976Z" transform="translate(-840.282 -351.976)"/></g><g transform="translate(65.794 209.974)"><path class="t" d="M896.571,587.646c-7.741-5.785-13.834-5.061-17.684-15.516-6.757-22.782-20.174-28.224-26.821-29.506a3.292,3.292,0,0,0-3.922,3.238v5.081a3.243,3.243,0,0,0,2.647,3.227c4.79.806,14.876,4.873,19.979,24.381,2.878,9.457,10.46,12.349,15.54,15.033,2.981,1.571,4.161,4.81,4.626,7.127a3.278,3.278,0,0,0,3.221,2.635H900.2a3.3,3.3,0,0,0,3.28-3.646A16.93,16.93,0,0,0,896.571,587.646Z" transform="translate(-848.144 -542.564)"/></g><g transform="translate(50.106 182.904)"><path class="h" d="M3.893,0h13.4a3.895,3.895,0,0,1,3.895,3.895V45.642a3.895,3.895,0,0,1-3.895,3.895H3.893A3.893,3.893,0,0,1,0,45.643V3.893A3.893,3.893,0,0,1,3.893,0Z"/></g></g><path class="u" d="M870.5,518.578l18.244,5.036v-26.56L872.351,500Z" transform="translate(-780.076 -174.618)"/><path class="v" d="M863.227,394.161c-5.81,40.9,5.953,170,5.953,170-.756-10.088,18.413-10.088,20.684-17.15s-29.006-22.2-9.837-18.413,25.474-6.306,25.474-6.306c-7.567-23.2-8.222-256.765-8.222-256.765S869.039,353.259,863.227,394.161Z" transform="translate(-780.98 -198.169)"/><path class="w" d="M872.675,528.6c1.17-1.04,5.279-.2,6.226,0,18.918,4.031,25.474-6.306,25.474-6.306-7.567-23.2-8.222-256.765-8.222-256.765Z" transform="translate(-779.855 -198.169)"/><path d="M904.467,262.588c-14.423-21.714-38.561,2.632-42.841-36.782l-26.084.2s2.673,18.3-9.955,23.014c-11.577,4.323-21,5.506-17.277,18.844s-1.053,23.164-5.273,30.4c-4.342,7.444,1.4,21.889,8.375,30.4,17.469,21.316-21.4,47.177-21.4,76.926,0,0,20.562,43.539,114.239,4.454-6.216-29.812-14.4-40.436-17.383-50.983C878.242,328.611,916.122,280.131,904.467,262.588Z" transform="translate(-788.264 -202.209)"/><path class="x" d="M900.043,260.927c-17.136-13.2-17.39,37.994-38.587,49.409-38.334,20.644-61.357-8.18-60.422-3.71a44.925,44.925,0,0,0,9.258,18.679c.349.41,14.139-5.652,41.115,1.97,4.641,1.311,7.708,4.2,9.046,10.337,3.291,15.1.827,34.991,7.715,48.282,5.391,10.4,9.679,18.915,11.791,29.288,7.183-2.253,14.875-5.035,23.169-8.5-6.216-29.812-14.4-40.436-17.383-50.983C877.124,325.258,916.727,273.78,900.043,260.927Z" transform="translate(-787.145 -198.857)"/><ellipse class="e" cx="13.014" cy="2.42" rx="13.014" ry="2.42" transform="translate(47.277 21.375)"/><g transform="translate(57.246 0)"><path class="t" d="M843.693,204.388c-1.828,0-3.308.74-3.308,1.654v21.363c0,.913,1.481,1.655,3.308,1.655s3.31-.741,3.31-1.655V206.042C847,205.128,845.521,204.388,843.693,204.388Z" transform="translate(-840.385 -204.388)"/></g><path class="y" d="M869.884,246.534c-36.905,9.675-40.733-3.419-40.733-3.419-4.026-1.9-5.265,1.151-7.83,3.407a9.353,9.353,0,0,1-1.3.99,38.869,38.869,0,0,1-5.067,2.664c-2.019.9-3.1,1.165-4.856,2.626-3.928,3.234,3.89,21.394,15.956,33.053,20.367,19.7,27.255-4.374,51.338-22.808,20.478-15.659,27.032,2.688,27.032,2.688S906.791,236.846,869.884,246.534Z" transform="translate(-786.324 -200.509)"/><path class="z" d="M836.314,276.739A9.885,9.885,0,0,1,832.153,274a30.942,30.942,0,0,1-5.463-8.66,77.685,77.685,0,0,1-3.57-9.787c-.917-3.1-1.746-6.332-2.341-9.4a9.355,9.355,0,0,1-1.3.99,38.871,38.871,0,0,1-5.067,2.664c1.079,2.676,2.242,5.241,3.53,7.8a81.774,81.774,0,0,0,5.513,9.564,33.358,33.358,0,0,0,7.5,8.239,11.375,11.375,0,0,0,5.178,2.242,8.011,8.011,0,0,0,5.277-1.252A7.557,7.557,0,0,1,836.314,276.739Z" transform="translate(-785.781 -200.14)"/><path class="aa" d="M892.151,245.766a18.378,18.378,0,0,0-5.546-2.088,17.223,17.223,0,0,0-3.054-.256,11.519,11.519,0,0,0-1.585.057,10.152,10.152,0,0,0-1.642.292,22.974,22.974,0,0,0-5.576,2.255,52.933,52.933,0,0,0-4.714,2.924c-2.988,2.046-5.741,4.214-8.482,6.294-2.722,2.088-5.416,4.122-8.149,5.856a25.208,25.208,0,0,1-8.292,3.73,11.069,11.069,0,0,1-2.157.221l-1.171.031c-.387,0-.756-.048-1.141-.066a12.835,12.835,0,0,1-4.384-.987,10.954,10.954,0,0,1-6.176-7.106,11,11,0,0,0,4.242,10.205,15.048,15.048,0,0,0,5.378,2.683c.476.129.96.3,1.441.387l1.448.236a13.949,13.949,0,0,0,3.082.214A26.011,26.011,0,0,0,856.94,267.2a69.424,69.424,0,0,0,9.13-6.055c2.816-2.177,5.5-4.417,8.143-6.535a38.529,38.529,0,0,1,7.819-5.268,12.478,12.478,0,0,1,4.113-.82,17.356,17.356,0,0,1,4.567.583,26.474,26.474,0,0,1,9,4.629,18.465,18.465,0,0,0-3.156-4.44A19.076,19.076,0,0,0,892.151,245.766Z" transform="translate(-784.2 -200.418)"/></g></g></svg>